<svg width="553" height="566" viewBox="0 0 553 566" fill="none" xmlns="http://www.w3.org/2000/svg">
<g filter="url(#filter0_ddd)">
<path d="M395.246 41.3545C434.56 55.0832 481.362 66.3157 488.85 94.3971C496.339 123.103 464.513 168.657 458.273 211.715C452.656 254.149 472.625 292.839 462.017 315.304C450.784 337.769 408.974 343.386 375.277 372.715C340.955 402.669 315.37 456.335 277.304 478.176C238.614 500.642 187.443 490.657 163.106 455.087C138.769 420.141 141.265 359.61 133.152 315.304C125.04 270.998 106.319 242.917 98.8307 210.467C91.3423 178.017 94.4625 141.199 108.191 106.254C121.296 71.308 145.009 38.2343 176.835 19.5134C209.284 0.792456 249.222 -3.57577 286.04 2.66455C322.858 9.52889 355.308 27.0018 395.246 41.3545Z" fill="url(#paint0_linear)"/>
<path d="M195.259 81.7588C195.259 81.7588 202.339 82.3171 202.948 92.112C203.557 101.907 203.608 130.327 190.311 132.078C177.014 133.829 186.581 85.3875 186.581 85.3875L195.259 81.7588Z" fill="#1C2226"/>
<path d="M149.076 90.5387C149.076 90.5387 143.696 105.536 154.43 108.276C165.189 111.017 163.185 89.27 163.185 89.27L149.076 90.5387Z" fill="#1C2226"/>
<path d="M210.231 184.732L243.498 231.626L241.646 227.236L256.998 296.055L274.101 292.857L263.519 223.151C263.291 221.628 262.707 220.258 261.895 219.091L261.667 218.761L228.4 171.867L210.231 184.732Z" fill="#FCC9A7"/>
<path d="M269.736 317.167C278.491 314.553 283.439 305.317 280.825 296.587C278.212 287.833 268.975 282.885 260.246 285.498C251.491 288.112 246.543 297.349 249.157 306.078C251.77 314.807 260.982 319.781 269.736 317.167Z" fill="#FCC9A7"/>
<path d="M138.215 183.134L117.179 247.435L128.471 239.772L59.9573 237.919L58.8661 255.302L127.075 262.026C132.15 262.534 136.718 259.387 138.241 254.743L138.367 254.363L159.404 190.061L138.215 183.134Z" fill="#FCC9A7"/>
<path d="M141.945 512.025L131.643 540.42L116.57 526.87L126.187 504.108L141.945 512.025Z" fill="#FCC9A7"/>
<path d="M137.606 533.848C137.606 532.452 136.414 531.539 135.221 532.046C132.886 533.036 129.004 533.899 124.411 531.844C119.615 529.687 118.727 526.159 118.727 523.825C118.727 522.607 117.864 521.693 116.748 521.846L81.6533 526.895C79.5218 527.2 77.5171 528.443 76.0961 530.346C74.7512 532.123 75.3855 534.736 77.2633 535.295L129.664 551.23C131.719 551.865 133.952 550.368 134.561 547.982L137.53 536.259C137.581 536.056 137.606 535.853 137.606 535.675V533.848Z" fill="#1F252A"/>
<path d="M278.973 492.74L290.392 515.096L277.095 526.464L262.733 499.642L278.973 492.74Z" fill="#FCC9A7"/>
<path d="M292.777 510.173C291.711 509.285 290.24 509.589 289.859 510.833C289.098 513.269 287.271 516.77 282.703 518.953C277.958 521.211 274.685 519.587 272.908 518.09C271.969 517.303 270.701 517.379 270.117 518.318L251.238 548.338C250.096 550.165 249.74 552.474 250.273 554.783C250.755 556.965 253.141 558.158 254.816 557.092L300.897 527.454C302.699 526.286 303.029 523.622 301.608 521.617L294.579 511.772C294.452 511.619 294.325 511.467 294.173 511.34L292.777 510.173Z" fill="#1F252A"/>
<path d="M153.593 283.037L198.66 408.062L262.454 513.776L290.899 499.718L234.185 394.334L203.075 288.924L153.593 283.037Z" fill="#092330"/>
<path d="M223.223 284.889C223.223 284.889 231.749 301.003 218.503 326.759L177.37 405.245L146.031 524.205L114.895 513.345L144.686 393.04L176.887 299.176L153.567 283.062L223.223 284.889Z" fill="#0C2C40"/>
<path d="M184.424 145.984L219.518 153.191C223.654 154.028 227.309 156.413 229.77 159.839L252.1 190.949L222.259 210.463L233.018 295.649C233.018 295.649 220.863 332.849 146.716 303.185C146.716 303.185 153.111 232.591 148.822 186.61L151.005 156.337L184.424 145.984Z" fill="#DF945B"/>
<path d="M150.979 156.312L145.143 158.443C140.321 160.194 136.566 164.077 134.967 168.974L122.812 206.048L158.541 212.645L150.979 156.312Z" fill="#DF945B"/>
<path d="M37.1701 241.65C37.1701 250.785 44.5798 258.194 53.7149 258.194C62.8501 258.194 70.2344 250.785 70.2344 241.65C70.2344 232.514 62.8247 225.13 53.7149 225.13C44.5798 225.13 37.1701 232.514 37.1701 241.65Z" fill="#FCC9A7"/>
<path d="M174.502 156.718L178.486 158.926C186.226 158.291 193.508 156.642 192.874 148.902L191.021 126.217L162.982 128.526L164.834 151.211C165.468 158.951 166.763 157.352 174.502 156.718Z" fill="#FCC9A7"/>
<path d="M191.402 128.957C191.402 128.957 187.545 145.756 173.436 145.172C161.104 144.639 162.271 126.217 162.271 126.217L191.402 128.957Z" fill="#F4BE9A"/>
<path d="M175.847 139.209L178.232 138.955C190.159 137.661 198.786 126.952 197.518 115.001L196.046 101.399C194.752 89.4729 184.043 80.8453 172.091 82.114L169.706 82.3678C157.78 83.6619 149.152 94.3704 150.421 106.322L151.893 119.923C153.187 131.85 163.895 140.478 175.847 139.209Z" fill="#FCC9A7"/>
<path d="M220.203 204.525L211.17 193.868" stroke="#CE804A" stroke-width="0.7693" stroke-miterlimit="10" stroke-linecap="round" stroke-linejoin="round"/>
<path d="M150.167 211.098L148.797 189.097" stroke="#CE804A" stroke-width="0.7693" stroke-miterlimit="10" stroke-linecap="round" stroke-linejoin="round"/>
<path d="M174.502 156.718L192.316 145.959C199.928 142.787 204.775 150.146 204.775 150.146L183.561 170.954L174.502 156.718Z" fill="#EDA472"/>
<path d="M174.502 156.718L165.875 170.065L157.247 154.358C157.247 154.358 160.647 149.004 165.291 150.247L174.502 156.718Z" fill="#EDA472"/>
<path d="M128.014 242.335H20.1939C18.3922 242.335 16.9459 240.888 16.9459 239.087C16.9459 237.285 18.3922 235.839 20.1939 235.839H128.014C129.816 235.839 131.262 237.285 131.262 239.087C131.262 240.863 129.816 242.335 128.014 242.335Z" fill="#D1D1D1"/>
<path d="M16.9459 238.249L4.05512 175.623C3.72524 174.075 4.91797 172.603 6.51662 172.603H72.1121C73.3048 172.603 74.3451 173.44 74.5735 174.633L87.2866 238.275H16.9459V238.249Z" fill="#D1D1D1"/>
<path d="M11.3379 177.374L23.3658 234.189H82.8459L70.818 177.374H11.3379Z" fill="#EFEFEF"/>
<path d="M194.625 111.753H187.342L185.921 103.759C185.921 103.759 178.309 99.6739 179.78 91.7821C179.78 91.7821 147.731 103.277 142.732 90.4879C136.135 73.6132 160.064 69.4263 179.78 69.9085C199.497 70.3652 198.076 95.5377 198.076 95.5377L194.625 111.753Z" fill="#1C2226"/>
<path d="M190.362 110.154C190.819 114.417 194.65 117.488 198.913 117.031C203.176 116.574 206.247 112.742 205.79 108.479C205.333 104.216 201.502 101.146 197.239 101.602C192.976 102.059 189.905 105.891 190.362 110.154Z" fill="#FCC9A7"/>
<path d="M320.188 351.779H398.167V475.51H320.188V351.779Z" fill="#B2B2B2"/>
<path d="M397.862 351.779H475.841V475.51H397.862V351.779Z" fill="#D1D1D1"/>
<path d="M438.717 201.734L442.041 268.243L457.672 317.015H429.531L414.914 274.993L410.347 227.237L438.717 201.734Z" fill="#F7EBE7"/>
<path d="M439.503 434.199L433.844 460.564L452.851 462.822L458.256 436.863L439.503 434.199Z" fill="#FCC9A7"/>
<path d="M432.703 458.179C433.185 456.758 434.707 456.25 435.748 457.164C437.778 458.965 441.432 461.173 446.837 460.64C452.445 460.082 454.551 456.783 455.363 454.398C455.794 453.154 456.987 452.52 458.053 453.053L492.081 470.156C494.137 471.196 495.761 473.125 496.573 475.536C497.334 477.794 495.811 480.23 493.68 480.179L434.885 478.555C432.576 478.504 430.799 476.221 431.002 473.582L431.967 460.64C431.992 460.437 432.017 460.209 432.094 460.006L432.703 458.179Z" fill="#1F252A"/>
<path d="M439.833 306.713H483.961C483.961 306.713 510.834 305.215 512.432 327.267C514.031 349.318 473.024 412.401 466.604 446.1L429.708 443.055L456.276 351.424L390.199 351.805C385.301 351.83 380.429 351.12 375.811 349.521C362.945 345.055 343.305 338.66 354.013 303.236L439.833 306.713Z" fill="#092330"/>
<path d="M405.779 434.3L396.796 465.817L415.803 468.075L424.532 436.965L405.779 434.3Z" fill="#FCC9A7"/>
<path d="M395.654 463.431C396.137 462.01 397.659 461.503 398.699 462.416C400.729 464.218 404.383 466.426 409.788 465.893C415.396 465.335 417.503 462.036 418.315 459.651C418.746 458.407 419.939 457.773 421.005 458.306L455.033 475.409C457.088 476.449 458.712 478.378 459.524 480.788C460.286 483.047 458.763 485.483 456.632 485.432L396.822 483.808C394.512 483.757 392.736 481.473 392.939 478.834L394.944 465.893C394.969 465.69 394.995 465.462 395.071 465.259L395.654 463.431Z" fill="#1F252A"/>
<path d="M387.103 175.598C386.113 176.562 341.833 187.854 341.833 187.854L351.298 213.001L399.714 209.347L387.103 175.598Z" fill="#F7EBE7"/>
<path d="M405.373 181.662C405.373 181.662 434.225 192.193 438.717 201.734C437.169 215.209 432.423 228.176 424.608 239.265C415.016 252.866 403.165 276.237 405.348 306.713H321.939C321.939 306.713 326.43 220.969 351.12 188.057L405.373 181.662Z" fill="#F7EBE7"/>
<path d="M395.908 195.264C387.712 193.589 382.434 185.595 384.108 177.399L389.006 153.419L418.67 159.484L413.772 183.464C412.098 191.66 404.104 196.938 395.908 195.264Z" fill="#FCC9A7"/>
<path d="M386.976 161.793C386.976 161.793 390.097 181.231 405.221 182.398C418.467 183.413 417.198 164.255 417.198 164.255L386.976 161.793Z" fill="#F4BE9A"/>
<path d="M404.028 171.74L401.415 171.131C388.295 168.086 380.125 154.993 383.17 141.899L386.621 126.953C389.666 113.834 402.759 105.663 415.853 108.708L418.467 109.317C431.586 112.362 439.757 125.456 436.712 138.549L433.261 153.495C430.216 166.615 417.122 174.785 404.028 171.74Z" fill="#FCC9A7"/>
<path d="M391.391 148.116C392 149.156 392.584 150.73 392.787 153.115C393.015 156.135 394.538 159.002 397.076 160.677C404.358 165.498 409.915 153.292 420.675 155.449C420.675 155.449 424.887 156.084 425.724 160.778C426.562 165.447 432.424 157.276 433.718 151.694C435.012 146.111 435.671 179.328 409.18 176.511C409.18 176.511 395.807 176.08 386.798 162.453C385.809 160.956 385.225 159.205 385.174 157.403C385.098 154.739 385.479 150.704 388.016 147.811C388.905 146.746 390.681 146.898 391.391 148.116Z" fill="#1C2226"/>
<path d="M391.366 140.579C391.366 140.579 402.81 136.798 400.882 120.076C400.882 120.076 429.302 146.974 450.364 127.232C450.364 127.232 440.95 124.72 437.067 118.274C429.987 106.526 409.636 90.336 393.345 109.063C393.345 109.063 373.527 105.993 379.211 136.519L391.366 140.579Z" fill="#1C2226"/>
<path d="M391.366 140.579C390.275 145.248 385.606 148.167 380.937 147.101C376.242 146.01 373.349 141.341 374.415 136.672C375.506 132.002 380.175 129.084 384.845 130.15C389.539 131.241 392.457 135.91 391.366 140.579Z" fill="#FCC9A7"/>
<path d="M405.83 194.325L393.574 194.553L402.151 212.316L411.413 195.289L405.83 194.325Z" fill="#0C2C40"/>
<path d="M383.068 176.384L398.852 194.807L388.575 206.606L369.67 180.622C369.67 180.622 374.517 172.832 383.068 176.384Z" fill="#FFF7F3"/>
<path d="M405.83 194.325L414.914 204.576L421.309 188.59C421.309 188.59 419.634 181.409 414.407 182.779L405.83 194.325Z" fill="#FFF7F3"/>
<path d="M402.481 206.581C402.481 206.581 414.331 237.488 411.387 281.337L399.715 291.995L386.088 278.876L400.78 204.576L402.481 206.581Z" fill="#0C2C40"/>
<path d="M380.328 279.967L405.703 288.315L407.378 303.211L373.73 293.162L380.328 279.967Z" fill="#FCC9A7"/>
<path d="M401.922 298.161C401.922 306.865 408.977 313.945 417.706 313.945C426.409 313.945 433.489 306.89 433.489 298.161C433.489 289.457 426.435 282.378 417.706 282.378C409.002 282.378 401.922 289.432 401.922 298.161Z" fill="#FCC9A7"/>
<path d="M405.373 306.713H449.476C449.476 306.713 476.348 305.215 477.947 327.267C479.546 349.318 435.519 416.461 429.099 450.135L392.203 447.09L421.791 351.399L355.713 351.779C350.816 351.805 345.944 351.094 341.325 349.496C328.46 345.03 308.82 338.635 319.528 303.211L405.373 306.713Z" fill="#0C2C40"/>
<path d="M538.417 228.734H462.163C459.651 228.734 457.494 230.485 456.962 232.946L442.599 300.293C441.889 303.591 444.426 306.713 447.801 306.713H525.323C527.861 306.713 530.043 304.911 530.525 302.424L543.619 235.078C544.278 231.779 541.766 228.734 538.417 228.734Z" fill="#B2B2B2"/>
<path d="M542.807 228.734H466.579C464.067 228.734 461.91 230.485 461.377 232.946L447.014 300.293C446.304 303.591 448.816 306.713 452.216 306.713H529.713C532.251 306.713 534.433 304.911 534.915 302.424L548.009 235.078C548.668 231.779 546.156 228.734 542.807 228.734Z" fill="#D1D1D1"/>
<path d="M444.68 300.952H392.584C390.985 300.952 389.716 302.246 389.716 303.82C389.716 305.418 391.011 306.687 392.584 306.687H445.695L444.68 300.952Z" fill="#B2B2B2"/>
<path d="M495.608 265.96C495.608 270.553 499.313 274.257 503.906 274.257C508.499 274.257 512.204 270.527 512.204 265.96C512.204 261.367 508.474 257.662 503.906 257.662C499.313 257.662 495.608 261.367 495.608 265.96Z" fill="white"/>
<path d="M360.027 211.808L332.165 256.799L398.852 280.601L389.717 300.343C389.717 300.343 332.698 293.949 305.14 272.709C302.603 270.756 301.334 267.584 301.765 264.412C303.059 254.262 308.591 229.622 332.165 194.604C336.961 187.473 346.502 185.316 353.937 189.63C361.677 194.096 364.392 203.993 360.027 211.808Z" fill="#F7EBE7"/>
<path d="M381.114 274.257L332.165 256.799L356.652 217.239" stroke="#EADDD8" stroke-width="0.7599" stroke-miterlimit="10" stroke-linecap="round" stroke-linejoin="round"/>
<path d="M414.255 259.362L426.308 227.541" stroke="#EADDD8" stroke-width="0.7599" stroke-miterlimit="10" stroke-linecap="round" stroke-linejoin="round"/>
<path d="M380.328 298.998C380.328 298.998 342.873 294.304 323.994 283.494" stroke="#EADDD8" stroke-width="0.7599" stroke-miterlimit="10" stroke-linecap="round" stroke-linejoin="round"/>
</g>
<defs>
<filter id="filter0_ddd" x="8.58307e-06" y="0" width="552.114" height="565.488" filterUnits="userSpaceOnUse" color-interpolation-filters="sRGB">
<feFlood flood-opacity="0" result="BackgroundImageFix"/>
<feColorMatrix in="SourceAlpha" type="matrix" values="0 0 0 0 0 0 0 0 0 0 0 0 0 0 0 0 0 0 127 0"/>
<feOffset dy="4"/>
<feGaussianBlur stdDeviation="2"/>
<feColorMatrix type="matrix" values="0 0 0 0 0 0 0 0 0 0 0 0 0 0 0 0 0 0 0.25 0"/>
<feBlend mode="normal" in2="BackgroundImageFix" result="effect1_dropShadow"/>
<feColorMatrix in="SourceAlpha" type="matrix" values="0 0 0 0 0 0 0 0 0 0 0 0 0 0 0 0 0 0 127 0"/>
<feOffset dy="4"/>
<feGaussianBlur stdDeviation="2"/>
<feColorMatrix type="matrix" values="0 0 0 0 0 0 0 0 0 0 0 0 0 0 0 0 0 0 0.25 0"/>
<feBlend mode="normal" in2="effect1_dropShadow" result="effect2_dropShadow"/>
<feColorMatrix in="SourceAlpha" type="matrix" values="0 0 0 0 0 0 0 0 0 0 0 0 0 0 0 0 0 0 127 0"/>
<feOffset dy="4"/>
<feGaussianBlur stdDeviation="2"/>
<feColorMatrix type="matrix" values="0 0 0 0 0 0 0 0 0 0 0 0 0 0 0 0 0 0 0.25 0"/>
<feBlend mode="normal" in2="effect2_dropShadow" result="effect3_dropShadow"/>
<feBlend mode="normal" in="SourceGraphic" in2="effect3_dropShadow" result="shape"/>
</filter>
<linearGradient id="paint0_linear" x1="94.8663" y1="490.143" x2="559.149" y2="335.251" gradientUnits="userSpaceOnUse">
<stop stop-color="#6CACE4"/>
<stop offset="0.0666667" stop-color="#6CACE4"/>
<stop offset="0.133333" stop-color="#6DADE4"/>
<stop offset="0.2" stop-color="#6FAEE5"/>
<stop offset="0.266667" stop-color="#72B0E5"/>
<stop offset="0.333333" stop-color="#75B3E6"/>
<stop offset="0.4" stop-color="#79B6E7"/>
<stop offset="0.466667" stop-color="#7DB9E8"/>
<stop offset="0.533333" stop-color="#82BDEA"/>
<stop offset="0.6" stop-color="#86C0EB"/>
<stop offset="0.666667" stop-color="#8AC3EC"/>
<stop offset="0.733333" stop-color="#8DC6ED"/>
<stop offset="0.8" stop-color="#90C8ED"/>
<stop offset="0.866667" stop-color="#92C9EE"/>
<stop offset="0.933333" stop-color="#93CAEE"/>
<stop offset="1" stop-color="#93CAEE"/>
</linearGradient>
</defs>
</svg>
